<svg version="1.1" id="Layer_1" xmlns="http://www.w3.org/2000/svg" xmlns:xlink="http://www.w3.org/1999/xlink" x="0px" y="0px"
	 width="100%" viewBox="0 0 223 143" enable-background="new 0 0 223 143" xml:space="preserve">
<path fill="#FFFFFF" opacity="1.000000" stroke="none" 
	d="
M152.000000,144.000000 
	C101.367622,144.000000 51.235237,144.000000 1.051428,144.000000 
	C1.051428,96.400246 1.051428,48.800415 1.051428,1.100293 
	C75.215546,1.100293 149.431274,1.100293 223.823502,1.100293 
	C223.823502,48.666130 223.823502,96.333015 223.823502,144.000000 
	C200.134048,144.000000 176.317017,144.000000 152.000000,144.000000 
M17.004669,84.007484 
	C17.004669,84.007484 17.070452,84.034592 16.579216,84.244705 
	C16.419048,84.552017 16.258883,84.859329 16.080475,85.072662 
	C16.080475,85.072662 16.174904,85.088409 15.638163,85.258804 
	C15.395149,85.744240 15.152136,86.229668 14.672394,87.360413 
	C11.601358,91.011444 8.530323,94.662483 5.459287,98.313515 
	C5.767179,98.673103 6.075071,99.032700 6.382964,99.392288 
	C9.911861,98.931305 13.440760,98.470322 17.109354,98.861916 
	C16.445032,102.475510 15.780709,106.089111 15.174334,110.245827 
	C15.413713,110.509781 15.653091,110.773743 15.971198,111.046089 
	C15.971198,111.046089 15.940296,111.118980 15.959584,111.637039 
	C16.194633,112.078583 16.429684,112.520119 16.732649,113.601173 
	C16.438059,114.405960 16.143469,115.210747 15.360001,116.532135 
	C15.323815,117.232460 15.287629,117.932777 15.285167,119.430641 
	C15.232754,120.498726 15.180341,121.566818 15.118903,122.818817 
	C17.585188,122.950783 19.796896,123.069122 22.199804,123.475899 
	C22.464178,123.369820 22.728552,123.263741 23.643311,122.734070 
	C23.535454,117.492615 23.427597,112.251160 23.568975,106.742973 
	C23.372335,106.498947 23.175697,106.254921 22.566080,105.744240 
	C22.295534,105.536736 22.115299,105.268532 21.962812,104.539795 
	C21.865677,104.265656 21.679848,104.080559 21.229782,103.144516 
	C21.157209,101.429466 21.084639,99.714417 21.466799,97.430817 
	C24.345757,95.771500 27.475740,94.425728 30.039694,92.372963 
	C33.196690,89.845421 35.881973,86.728683 39.378963,84.297356 
	C39.636574,84.983635 39.894184,85.669922 39.920250,86.976105 
	C39.361790,87.899521 38.803329,88.822945 38.244873,89.746361 
	C39.228821,89.843407 40.242828,90.144966 41.191998,90.005432 
	C49.470917,88.788422 57.738228,87.492447 66.339775,86.601715 
	C66.891785,86.428238 67.443802,86.254768 68.435883,85.874924 
	C68.435883,85.874924 68.914330,85.789246 69.237160,86.359573 
	C69.855141,86.962074 70.473129,87.564583 70.686539,88.812012 
	C67.888245,89.535744 65.127190,90.501350 62.284843,90.938980 
	C52.816746,92.396767 43.319477,93.665092 33.981537,94.985092 
	C34.860558,97.159294 35.526390,98.806190 36.212612,101.076988 
	C36.475086,101.383461 36.737560,101.689926 37.448570,102.358215 
	C37.689934,103.078140 37.931297,103.798065 38.197868,105.116188 
	C38.451309,105.409332 38.704750,105.702477 39.416161,106.485176 
	C40.329712,108.516197 41.243263,110.547226 42.188301,113.158684 
	C42.434669,113.444336 42.681034,113.729988 43.487137,114.398071 
	C44.337513,114.601822 45.187893,114.805573 46.307877,115.017303 
	C46.490475,114.993011 46.654053,114.923790 47.503349,114.343559 
	C48.334801,114.226768 49.166256,114.109970 50.284817,114.008041 
	C50.480576,113.985817 50.654995,113.912697 51.521164,113.344345 
	C52.352242,113.245514 53.183315,113.146683 54.309223,113.477661 
	C54.882458,113.122276 55.455692,112.766891 56.776691,112.132225 
	C59.347565,111.466698 61.882645,110.537453 64.495705,110.182823 
	C74.091141,108.880630 82.024506,104.869202 88.367538,97.337234 
	C92.101837,92.902969 96.702934,89.204857 100.837196,85.098145 
	C102.448624,83.497459 103.848694,81.684006 105.588364,79.713684 
	C105.406860,79.471519 105.225357,79.229347 104.579369,78.627861 
	C104.418869,78.074928 104.258362,77.521996 104.593758,76.523895 
	C103.946815,75.784676 103.299866,75.045464 102.658699,74.131813 
	C102.658699,74.131813 102.708916,74.298958 102.748024,73.759621 
	C102.513817,73.500832 102.279610,73.242050 101.993645,72.988937 
	C101.993645,72.988937 102.027466,72.949326 102.003723,72.365753 
	C101.690063,71.905327 101.376404,71.444901 100.649040,70.709053 
	C100.432686,70.457443 100.202866,70.218819 99.955177,69.347015 
	C99.685211,69.027069 99.415245,68.707123 99.222717,68.168892 
	C99.222717,68.168892 99.052376,68.011963 99.048096,67.399536 
	C98.714302,66.913109 98.380508,66.426682 97.996864,65.987267 
	C97.996864,65.987267 98.063049,65.969711 98.052071,65.400169 
	C97.996704,65.025627 97.941345,64.651077 97.845261,63.770584 
	C97.630714,63.518482 97.416176,63.266380 96.946854,62.646603 
	C96.946854,62.646603 96.909035,62.200878 96.983490,61.403099 
	C96.978348,60.867840 96.973206,60.332577 97.054047,59.438324 
	C97.181076,59.207581 97.372742,59.061939 98.231369,58.799221 
	C98.425140,58.441589 98.618912,58.083958 98.833389,57.860451 
	C98.833389,57.860451 98.705711,57.814434 99.296501,57.699661 
	C99.549301,57.184345 99.802109,56.669029 100.282814,55.513771 
	C105.252647,50.025105 110.222473,44.536438 115.781647,38.927570 
	C115.992683,38.453033 116.203712,37.978493 116.414749,37.503960 
	C115.291397,37.567337 114.168037,37.630714 112.305962,37.926250 
	C111.535957,37.946030 110.765953,37.965809 109.730453,37.553967 
	C109.141571,37.838554 108.552681,38.123142 107.150093,38.737785 
	C102.917831,39.218288 98.685577,39.698792 93.939430,40.116451 
	C93.642159,40.271320 93.344887,40.426189 92.264862,40.833862 
	C91.174339,40.882149 90.083824,40.930439 88.631516,40.483139 
	C87.429749,40.888592 86.227974,41.294044 84.294540,41.942390 
	C83.529053,41.959522 82.763557,41.976654 81.610092,41.482605 
	C80.081917,41.916653 78.553749,42.350700 76.374695,43.019657 
	C75.917221,43.015282 75.459747,43.010906 74.736374,42.566208 
	C74.145844,42.860058 73.555321,43.153908 72.177437,43.744190 
	C70.782112,43.820206 69.386787,43.896221 67.639793,43.487091 
	C66.749504,43.842087 65.859222,44.197083 64.203629,44.808453 
	C63.134960,44.869427 62.066292,44.930397 60.644753,44.499264 
	C59.753685,44.863949 58.862621,45.228634 57.170601,45.816952 
	C55.791847,45.911114 54.413097,46.005276 52.693371,45.575066 
	C51.787331,45.935261 50.881294,46.295456 49.349102,46.971409 
	C43.198734,53.971664 37.048363,60.971920 30.482826,68.181915 
	C30.225092,68.378571 30.059381,68.634758 29.747711,69.571701 
	C28.120859,71.370201 26.494005,73.168701 24.460714,75.186913 
	C24.210649,75.389900 24.053902,75.649284 23.749187,76.586540 
	C21.837509,78.726036 19.925833,80.865532 17.549473,83.214828 
	C17.378578,83.500206 17.207685,83.785591 17.004669,84.007484 
M137.000000,90.000702 
	C137.000000,90.000702 137.008270,89.984779 137.255936,90.454811 
	C137.563782,90.613029 137.871613,90.771240 138.804504,91.109612 
	C140.177429,92.485863 141.550354,93.862106 143.018936,95.820412 
	C143.431824,96.183289 143.844696,96.546165 144.813965,97.251472 
	C146.259598,99.703659 147.705231,102.155846 149.167816,105.168556 
	C149.390656,105.457832 149.613510,105.747101 150.264160,106.510429 
	C150.568268,107.523018 150.872375,108.535614 151.141663,110.084961 
	C151.325470,110.381371 151.509277,110.677780 151.904068,111.633179 
	C151.924805,112.092285 151.945541,112.551392 151.490280,113.392464 
	C151.912094,114.918747 152.333908,116.445030 152.920303,118.891609 
	C152.883148,123.264519 152.845978,127.637421 152.519089,132.205673 
	C152.634857,132.467926 152.750626,132.730194 153.445145,133.637741 
	C157.556442,133.733002 161.672501,133.995300 165.777786,133.878693 
	C170.298172,133.750290 174.808685,133.273666 179.718430,132.552567 
	C179.571121,131.713547 179.423798,130.874527 179.068604,129.224182 
	C178.931732,127.045471 178.794861,124.866760 178.842911,121.937584 
	C178.541382,121.289154 178.239868,120.640724 177.575424,119.468361 
	C177.454880,118.640984 177.334335,117.813614 177.496460,116.762535 
	C177.339355,116.508408 177.182251,116.254280 176.636719,115.458054 
	C176.393433,114.382088 176.150146,113.306114 175.892838,111.761101 
	C175.812729,111.438431 175.628021,111.195206 174.969711,110.403275 
	C173.969452,107.957436 172.969193,105.511597 171.970062,102.445267 
	C171.631775,101.969391 171.293488,101.493523 171.002563,101.003136 
	C171.002563,101.003136 170.971466,101.041794 170.961182,100.416237 
	C170.595078,99.961182 170.228958,99.506119 169.401184,98.817566 
	C169.282898,98.501831 169.164597,98.186104 168.991837,97.281990 
	C168.614487,96.875839 168.237137,96.469688 167.945480,96.050354 
	C167.945480,96.050354 167.919128,96.132950 167.812683,95.641106 
	C167.569412,95.419739 167.326126,95.198380 166.531311,94.596237 
	C160.638763,85.956825 152.575363,79.689262 143.665436,73.489517 
	C143.294495,73.380280 142.923538,73.271042 141.883499,73.054306 
	C140.248047,72.270485 138.612595,71.486656 136.691864,70.338646 
	C136.439651,70.131569 136.150970,70.041985 135.067841,70.002014 
	C125.140984,66.408661 114.972153,64.834312 104.059753,66.178513 
	C104.785965,68.238678 105.424149,70.049141 106.044807,72.502785 
	C106.396523,72.991318 106.748238,73.479851 107.597878,74.352333 
	C108.144211,75.701897 108.690536,77.051460 109.181282,78.993958 
	C109.381371,79.322533 109.581451,79.651108 110.016380,80.622116 
	C110.351768,81.182358 110.687157,81.742607 111.199081,82.573311 
	C111.199081,82.573311 111.641075,82.645653 111.641075,82.645653 
	C111.641075,82.645653 111.976395,82.322273 112.777245,82.138191 
	C113.865555,82.196976 114.953865,82.255760 116.581062,82.742462 
	C117.263336,82.746300 117.945602,82.750137 119.303764,82.585762 
	C120.206680,82.775208 121.109604,82.964645 122.460182,83.591377 
	C122.868080,83.620491 123.275986,83.649612 124.292549,83.608215 
	C124.867073,83.811623 125.441589,84.015038 126.388786,84.625633 
	C126.743637,84.691956 127.098495,84.758278 128.133041,84.878723 
	C130.094452,85.902184 132.055862,86.925652 134.324539,88.453537 
	C134.685211,88.584435 135.045868,88.715332 135.768311,88.887344 
	C135.768311,88.887344 136.008774,89.160736 136.231506,89.558472 
	C136.437958,89.802261 136.699356,89.946312 137.000000,90.000702 
M153.041870,73.023773 
	C153.041870,73.023773 153.242172,73.042015 153.617645,72.704384 
	C153.500229,72.120529 153.382812,71.536682 153.070221,70.960777 
	C153.070221,70.960777 152.887146,71.028877 153.058624,70.103241 
	C153.130432,64.723404 153.202225,59.343563 153.730515,53.394199 
	C153.827011,51.664562 153.923508,49.934921 154.561096,47.775173 
	C156.034668,47.163536 157.508240,46.551899 159.160095,46.387360 
	C159.337112,46.669346 159.580215,46.872105 160.054581,47.901852 
	C160.062134,50.898285 159.947876,53.903549 160.164154,56.884846 
	C160.217255,57.616898 161.349426,58.270668 162.396484,59.491261 
	C163.276352,58.695427 164.156219,57.899590 165.445908,56.564438 
	C168.229706,55.015732 171.013519,53.467026 174.293503,51.833027 
	C174.525925,51.600330 174.758347,51.367638 175.254562,50.877258 
	C175.254562,50.877258 175.622559,50.853737 176.195114,50.793083 
	C176.464462,50.532776 176.733810,50.272469 177.410126,49.465740 
	C186.611389,46.334557 189.820007,39.938568 188.125641,30.522825 
	C187.383270,26.397392 187.360443,22.142481 186.671936,17.482800 
	C186.314270,17.373466 185.956604,17.264135 185.235672,17.120113 
	C185.235672,17.120113 184.989441,16.850786 184.724075,16.438095 
	C184.481033,16.190687 184.186096,16.066093 183.201111,15.955166 
	C182.129868,15.240005 181.058640,14.524844 179.739639,13.416215 
	C179.510834,13.179582 179.231842,13.060024 178.982010,13.012134 
	C178.982010,13.012134 178.939865,13.093259 178.930664,12.497961 
	C178.294083,12.309040 177.657501,12.120120 176.435211,11.853662 
	C175.969696,11.506384 175.504166,11.159105 174.754227,10.414151 
	C174.505554,10.176858 174.209366,10.056633 173.303513,9.982957 
	C172.869156,9.654431 172.434784,9.325906 171.724075,8.513227 
	C171.217468,8.319449 170.710876,8.125670 169.516144,7.786172 
	C166.185898,6.000252 163.156601,2.452611 158.326813,6.011030 
	C157.892624,6.363861 157.458450,6.716693 156.761612,7.534544 
	C156.271896,7.728001 155.782166,7.921458 154.748215,8.186022 
	C154.490463,8.434397 154.232712,8.682772 153.983215,8.999480 
	C153.983215,8.999480 153.926086,8.961070 153.327103,9.008678 
	C152.896713,9.375003 152.466339,9.741328 151.678833,10.653472 
	C149.782822,11.768061 147.886826,12.882649 145.587097,14.127270 
	C145.327301,14.265258 145.136032,14.467923 144.482742,14.887621 
	C144.301117,14.917117 144.119507,14.946612 143.240311,14.980938 
	C142.490341,15.646769 141.740372,16.312599 141.001816,16.999725 
	C141.001816,16.999725 140.980011,16.990606 140.293442,16.989603 
	C139.510071,17.603029 138.726685,18.216457 137.843597,19.784258 
	C137.825592,35.197838 137.807571,50.611420 137.549713,66.369873 
	C137.880676,66.506912 138.211655,66.643951 139.248169,66.887726 
	C140.281433,67.178848 141.314697,67.469963 143.003662,67.945816 
	C143.003662,62.911343 143.003662,58.455742 143.444138,53.805035 
	C143.719299,53.614971 143.907394,53.360535 144.273865,52.618168 
	C144.493011,52.358295 144.758530,52.160740 145.747330,52.047352 
	C146.737701,53.019032 147.728058,53.990711 148.870789,55.648453 
	C148.822708,56.111767 148.774612,56.575077 148.279510,57.579590 
	C148.432999,59.374153 148.586502,61.168716 148.899765,63.797779 
	C148.850647,65.208603 148.801529,66.619431 148.336700,68.422432 
	C148.478378,69.272217 148.620056,70.121994 148.933975,71.457680 
	C148.960098,71.627525 148.986221,71.797371 149.226334,72.448807 
	C149.525162,72.617355 149.823975,72.785904 150.613373,73.005783 
	C150.921661,73.146584 151.243683,73.193932 151.897766,73.638481 
	C152.216400,73.409935 152.535034,73.181396 153.041870,73.023773 
M173.183807,97.311424 
	C173.315826,97.637405 173.545761,97.864037 174.139297,98.210564 
	C174.139297,98.210564 174.163559,98.554169 174.205902,99.147522 
	C174.467651,99.430740 174.729385,99.713959 175.518082,100.420654 
	C176.381317,102.531380 177.244537,104.642097 178.052383,107.402473 
	C178.361099,107.934006 178.669815,108.465538 179.210480,109.252754 
	C179.210480,109.252754 179.159027,109.594124 179.150345,110.131897 
	C179.355087,110.414207 179.559814,110.696510 180.063889,111.423088 
	C180.108627,111.771690 180.153351,112.120293 180.155899,113.037300 
	C180.350250,113.350288 180.544601,113.663277 181.069580,114.642197 
	C181.463943,116.557655 181.858307,118.473106 182.160797,120.961281 
	C182.328247,121.296036 182.495697,121.630791 182.898865,122.704269 
	C182.919800,123.473343 182.940720,124.242409 182.543182,125.263184 
	C182.785645,125.854568 183.028107,126.445953 183.613617,127.730637 
	C183.751556,128.491028 183.889511,129.251404 183.822479,129.929398 
	C183.822479,129.929398 183.608810,129.985504 183.259766,130.428864 
	C183.418259,131.273529 183.576752,132.118179 184.063065,133.422272 
	C184.395081,133.513168 184.727097,133.604065 185.911957,133.886139 
	C187.948685,133.829697 189.985397,133.773254 192.934067,133.932297 
	C199.278107,133.858353 205.622131,133.784409 212.625153,133.860413 
	C213.064758,133.787674 213.504349,133.714935 214.344101,133.840073 
	C214.344101,133.840073 214.784805,133.910995 215.171112,133.878586 
	C215.276855,133.807953 215.482376,133.710953 215.471832,133.671066 
	C215.412231,133.445587 215.300827,133.233780 215.112488,132.259628 
	C215.163696,131.500809 215.214905,130.741974 215.536987,129.796326 
	C215.714111,129.458450 215.621826,129.198303 215.105682,128.088440 
	C215.084457,107.724983 215.088303,87.361404 214.994446,66.998283 
	C214.986938,65.370735 214.305084,63.746288 213.983719,61.905224 
	C213.983719,61.905224 214.096115,61.715778 213.946426,61.050571 
	C211.989334,60.024422 210.032227,58.998276 207.550003,57.699368 
	C207.355362,57.667416 207.160721,57.635464 206.714523,57.289249 
	C206.498489,57.110291 206.250183,57.020035 205.999100,56.998341 
	C205.999100,56.998341 205.981628,57.028965 205.904510,56.339699 
	C202.951904,54.552410 199.999298,52.765121 197.008255,51.006626 
	C197.008255,51.006626 197.013321,50.958908 196.697586,50.496967 
	C196.354462,50.375175 196.011353,50.253384 195.012451,49.989391 
	C193.685013,49.158169 192.357574,48.326942 190.885193,46.950901 
	C189.937103,47.330250 188.989014,47.709595 188.013657,48.009060 
	C188.013657,48.009060 188.080765,48.060261 187.367157,48.015312 
	C186.572159,48.657513 185.777176,49.299717 184.628433,50.463657 
	C183.507507,51.014420 182.386581,51.565178 180.516541,52.048740 
	C179.680161,52.702126 178.843781,53.355511 177.639206,54.570938 
	C174.883087,56.095528 172.126968,57.620117 168.805527,59.194427 
	C168.535034,59.445316 168.264557,59.696201 167.666336,60.383812 
	C166.972061,60.928741 166.277786,61.473675 164.959869,62.667255 
	C164.973495,64.446220 164.987137,66.225189 164.799393,68.906555 
	C164.867279,72.603134 164.935165,76.299713 164.815598,80.830276 
	C164.962769,82.224258 165.109940,83.618233 165.019302,84.929588 
	C165.019302,84.929588 164.768723,84.953674 164.521774,85.264114 
	C164.771866,85.472290 165.021957,85.680466 165.812653,86.203865 
	C166.918427,87.693108 168.024200,89.182350 169.219025,91.234222 
	C169.491959,91.484947 169.764893,91.735664 170.512680,92.208221 
	C170.725922,92.673080 170.939178,93.137947 171.220123,94.185699 
	C171.493927,94.450348 171.767731,94.714996 171.996689,94.995438 
	C171.996689,94.995438 172.029053,94.960152 172.043060,95.590706 
	C172.428268,96.029907 172.813492,96.469109 173.095612,96.917267 
	C173.095612,96.917267 173.126038,96.818352 173.183807,97.311424 
M78.010399,111.178528 
	C77.680435,111.372353 77.350471,111.566170 76.428406,111.986710 
	C76.009865,112.015953 75.591324,112.045197 74.486496,111.997009 
	C73.664871,112.276253 72.843246,112.555496 71.381714,113.153618 
	C69.767120,113.503891 68.152519,113.854172 65.969818,114.160851 
	C65.654404,114.351624 65.338989,114.542397 64.384125,114.980080 
	C63.930103,115.008560 63.476086,115.037048 62.717468,114.581329 
	C61.815891,114.994804 60.914318,115.408287 59.520058,116.073227 
	C59.157322,116.104706 58.794586,116.136177 57.767822,116.065247 
	C57.185551,116.315163 56.603279,116.565079 55.463413,117.065109 
	C54.861759,117.138618 54.260109,117.212128 53.041698,117.206879 
	C52.699772,117.415146 52.357841,117.623405 51.463341,118.111275 
	C50.856339,118.165436 50.249340,118.219604 49.039539,118.195801 
	C48.699345,118.390945 48.359154,118.586090 47.461491,119.026077 
	C47.059978,119.054192 46.658466,119.082306 45.465214,119.024025 
	C44.602737,119.472443 43.740265,119.920868 42.476395,120.466309 
	C42.288471,120.669815 42.080128,120.849678 41.543274,121.145737 
	C41.475822,121.235123 41.333992,121.350471 41.354477,121.409164 
	C41.423519,121.606964 41.550266,121.784630 41.735760,122.698761 
	C41.448067,124.137497 41.160374,125.576233 40.422958,127.364357 
	C40.492065,128.225143 40.561176,129.085922 40.748299,130.829956 
	C41.449230,131.859283 42.136597,133.774902 42.853115,133.785873 
	C54.919155,133.970551 66.988823,133.917923 79.282799,133.917923 
	C79.561760,127.859848 79.811974,122.425911 80.607300,116.459816 
	C80.690689,115.188896 80.774078,113.917984 80.768707,112.092896 
	C80.045677,111.808266 79.322639,111.523636 78.010399,111.178528 
z"/>
<path fill="#15629B" opacity="1.000000" stroke="none" 
	d="
M16.969658,98.009346 
	C13.440760,98.470322 9.911861,98.931305 6.382964,99.392288 
	C6.075071,99.032700 5.767179,98.673103 5.459287,98.313515 
	C8.530323,94.662483 11.601358,91.011444 15.037550,86.922058 
	C15.660104,86.018600 15.917502,85.553505 16.174904,85.088409 
	C16.174904,85.088409 16.080475,85.072662 16.342186,85.025192 
	C16.759415,84.663353 16.914934,84.348969 17.070452,84.034592 
	C17.070452,84.034592 17.004669,84.007484 17.270355,83.956177 
	C17.695415,83.604919 17.854786,83.304977 18.014156,83.005028 
	C19.925833,80.865532 21.837509,78.726036 24.102516,76.200073 
	C24.754301,75.609879 24.891405,75.327744 24.867153,74.967201 
	C26.494005,73.168701 28.120859,71.370201 30.100971,69.187134 
	C30.767452,68.614113 30.915371,68.337318 30.897991,67.972176 
	C37.048363,60.971920 43.198734,53.971664 49.980553,46.878685 
	C51.419449,46.557121 52.226898,46.328278 53.034344,46.099442 
	C54.413097,46.005276 55.791847,45.911114 57.884750,45.778740 
	C59.398476,45.490807 60.198048,45.241089 60.997623,44.991367 
	C62.066292,44.930397 63.134960,44.869427 64.900497,44.742165 
	C66.395401,44.441334 67.193428,44.206783 67.991463,43.972237 
	C69.386787,43.896221 70.782112,43.820206 72.838440,43.678448 
	C74.000389,43.410645 74.501335,43.208588 75.002274,43.006527 
	C75.459747,43.010906 75.917221,43.015282 77.068451,42.963795 
	C79.174156,42.603218 80.586113,42.298500 81.998070,41.993782 
	C82.763557,41.976654 83.529053,41.959522 85.004059,41.880104 
	C86.806816,41.538120 87.900063,41.258423 88.993301,40.978729 
	C90.083824,40.930439 91.174339,40.882149 92.915970,40.768181 
	C93.862488,40.528099 94.157906,40.353695 94.453316,40.179295 
	C98.685577,39.698792 102.917831,39.218288 107.820648,38.665562 
	C108.992790,38.390755 109.494370,38.188168 109.995949,37.985584 
	C110.765953,37.965809 111.535957,37.946030 113.019592,37.890862 
	C114.219582,38.252903 114.705948,38.650337 115.192307,39.047771 
	C110.222473,44.536438 105.252647,50.025105 99.910919,55.947094 
	C99.261246,56.858421 98.983482,57.336426 98.705711,57.814434 
	C98.705711,57.814434 98.833389,57.860451 98.537582,57.909130 
	C98.037521,58.305672 97.833282,58.653534 97.629036,59.001400 
	C97.372742,59.061939 97.181076,59.207581 96.715103,59.756626 
	C96.553787,60.783581 96.731407,61.492229 96.909027,62.200878 
	C96.909035,62.200878 96.946854,62.646603 97.024734,63.063442 
	C97.102615,63.480282 97.055008,63.954330 97.016327,63.989456 
	C96.977638,64.024582 96.901505,64.096184 96.521797,64.066284 
	C95.126488,64.030457 94.110878,64.024521 93.091751,63.822266 
	C93.088234,63.625938 93.102982,63.233498 93.373840,63.093117 
	C94.005669,62.473221 94.366653,61.993710 94.956261,61.210499 
	C94.100975,61.210499 93.544479,61.210499 92.642830,61.164185 
	C91.847908,61.218948 91.398140,61.320026 90.728851,61.376202 
	C90.206284,61.445332 90.008446,61.657490 89.604507,62.087086 
	C82.500237,70.067345 75.707283,77.928299 68.914330,85.789246 
	C68.914330,85.789246 68.435883,85.874924 67.881851,85.920540 
	C66.888206,86.050751 66.448601,86.135338 66.008987,86.219925 
	C57.738228,87.492447 49.470917,88.788422 41.191998,90.005432 
	C40.242828,90.144966 39.228821,89.843407 38.244873,89.746361 
	C38.803329,88.822945 39.361790,87.899521 40.390869,86.629974 
	C41.637539,85.696579 42.453465,85.154793 43.183357,84.514877 
	C49.247032,79.198631 55.371979,73.947220 61.274807,68.457306 
	C62.311787,67.492874 62.397835,65.505981 62.874939,63.771187 
	C62.637321,63.243141 62.374516,63.155861 61.666996,63.154808 
	C59.335098,63.732288 56.916748,63.954216 55.514980,65.264069 
	C53.040264,67.576530 51.185112,70.552040 48.803638,73.362366 
	C48.201958,73.940788 47.867245,74.406853 47.249664,75.019852 
	C44.234909,78.066734 41.503017,80.966667 38.771126,83.866592 
	C35.881973,86.728683 33.196690,89.845421 30.039694,92.372963 
	C27.475740,94.425728 24.345757,95.771500 20.835220,97.715485 
	C19.125647,98.003220 18.047651,98.006279 16.969658,98.009346 
z"/>
<path fill="#12619C" opacity="1.000000" stroke="none" 
	d="
M165.583511,62.018604 
	C166.277786,61.473675 166.972061,60.928741 168.114441,60.142410 
	C168.831985,59.648907 169.101410,59.396805 169.370850,59.144707 
	C172.126968,57.620117 174.883087,56.095528 178.145264,54.251144 
	C179.522766,53.326214 180.394211,52.721073 181.265656,52.115936 
	C182.386581,51.565178 183.507507,51.014420 185.117065,50.165726 
	C186.430710,49.265285 187.255737,48.662773 188.080765,48.060257 
	C188.080765,48.060261 188.013657,48.009060 188.404541,47.986073 
	C189.540314,47.807297 190.285233,47.651512 191.030136,47.495720 
	C192.357574,48.326942 193.685013,49.158169 195.481033,50.307579 
	C196.304184,50.736809 196.658752,50.847858 197.013321,50.958908 
	C197.013321,50.958908 197.008255,51.006626 197.124634,51.326035 
	C200.154541,53.439953 203.068085,55.234459 205.981628,57.028965 
	C205.981628,57.028965 205.999100,56.998341 206.056732,57.253403 
	C206.398285,57.540142 206.682175,57.571827 206.966080,57.603508 
	C207.160721,57.635464 207.355362,57.667416 207.881561,58.169914 
	C210.174133,59.665569 212.135117,60.690674 214.096115,61.715778 
	C214.096115,61.715778 213.983719,61.905224 213.971466,62.473267 
	C213.954147,86.574944 213.949051,110.108582 213.943954,133.642212 
	C213.504349,133.714935 213.064758,133.787674 211.965408,133.543152 
	C204.877823,133.389511 198.449966,133.553146 192.022125,133.716797 
	C189.985397,133.773254 187.948685,133.829697 185.476624,133.452393 
	C184.703354,132.016357 184.365402,131.014069 184.027466,130.011795 
	C183.889511,129.251404 183.751556,128.491028 183.554108,127.131210 
	C183.316956,126.025017 183.139297,125.518250 182.961639,125.011482 
	C182.940720,124.242409 182.919800,123.473343 182.844147,122.047333 
	C182.610519,121.056442 182.431595,120.722496 182.252655,120.388557 
	C181.858307,118.473106 181.463943,116.557655 180.937561,114.023064 
	C180.603058,113.092255 180.400574,112.780579 180.198090,112.468895 
	C180.153351,112.120293 180.108627,111.771690 179.938019,110.927422 
	C179.594452,110.152550 179.376740,109.873337 179.159027,109.594124 
	C179.159027,109.594124 179.210480,109.252754 179.119812,108.805664 
	C178.722015,107.823326 178.414902,107.288078 178.107773,106.752823 
	C177.244537,104.642097 176.381317,102.531380 175.229218,99.913254 
	C174.681427,99.121956 174.422485,98.838058 174.163559,98.554169 
	C174.163559,98.554169 174.139297,98.210564 174.000244,97.842758 
	C173.616150,97.256088 173.371094,97.037224 173.126038,96.818359 
	C173.126038,96.818352 173.095612,96.917267 173.112274,96.612175 
	C172.762299,95.858101 172.395676,95.409126 172.029053,94.960152 
	C172.029053,94.960152 171.996689,94.995438 171.976227,94.698792 
	C171.687988,94.135696 171.420212,93.869255 171.152420,93.602806 
	C170.939178,93.137947 170.725922,92.673080 170.221710,91.818207 
	C169.663803,91.175995 169.396881,90.923798 169.129959,90.671593 
	C168.024200,89.182350 166.918427,87.693108 165.470825,85.783295 
	C165.008911,85.226372 164.888824,85.090019 164.768723,84.953674 
	C164.768723,84.953674 165.019302,84.929588 165.352997,84.698662 
	C165.458801,82.977257 165.230927,81.486771 165.003052,79.996292 
	C164.935165,76.299713 164.867279,72.603134 165.163300,68.244774 
	C165.545975,65.728195 165.564743,63.873398 165.583511,62.018604 
M210.629822,90.426247 
	C210.426651,87.282608 210.223480,84.138962 209.480255,80.550369 
	C207.673157,79.632866 205.866058,78.715363 203.844894,77.689178 
	C202.472061,88.769592 203.002274,89.822495 210.629822,90.426247 
M203.503265,128.370575 
	C205.651794,128.205322 207.800339,128.040054 210.056671,127.421104 
	C210.056671,127.421104 210.201401,126.977798 210.708786,126.331055 
	C210.799591,117.074509 210.922516,107.817978 210.925766,98.561401 
	C210.926056,97.738655 210.147507,96.915634 209.121185,95.904015 
	C207.139587,95.268074 205.158005,94.632133 202.382217,93.997307 
	C201.588791,93.997421 200.795380,93.997543 199.797882,93.299751 
	C197.676285,91.416389 195.554688,89.533028 192.599457,86.909645 
	C192.599457,101.998283 192.599457,115.363556 192.599457,129.283539 
	C195.244400,128.752228 197.434067,128.312378 200.541595,127.942924 
	C201.460968,127.893150 202.380356,127.843376 203.139832,127.794083 
	C203.139832,127.794083 203.209152,127.649994 203.503265,128.370575 
M193.169586,71.487854 
	C189.969452,80.407646 191.722626,84.421661 199.709259,86.070412 
	C199.410034,80.558792 202.007690,74.020538 193.169586,71.487854 
M195.316269,56.117439 
	C194.453003,55.806129 193.589722,55.494816 192.663574,55.160831 
	C191.904099,66.274673 190.643967,66.876373 199.505219,69.263924 
	C200.251251,58.869106 200.251251,58.869106 195.316269,56.117439 
M203.342712,66.637444 
	C203.319702,74.171646 203.960037,75.079506 209.585663,75.488503 
	C210.975739,64.643166 210.885193,64.419838 203.783463,62.060890 
	C203.632401,63.342289 203.488571,64.562302 203.342712,66.637444 
z"/>
<path fill="#14629C" opacity="1.000000" stroke="none" 
	d="
M134.017273,87.949120 
	C132.055862,86.925652 130.094452,85.902184 127.618622,84.628448 
	C126.741508,84.324928 126.378815,84.271683 126.016113,84.218445 
	C125.441589,84.015038 124.867073,83.811623 123.766541,83.419746 
	C122.831200,83.205544 122.421860,83.179810 122.012520,83.154083 
	C121.109604,82.964645 120.206680,82.775208 118.696732,82.445724 
	C117.407188,82.308647 116.724686,82.311600 116.042175,82.314545 
	C114.953865,82.255760 113.865555,82.196976 112.139801,82.154343 
	C111.502357,82.170486 111.022537,82.302849 111.022537,82.302849 
	C110.687157,81.742607 110.351768,81.182358 109.949875,80.001724 
	C109.667862,79.054565 109.452370,78.727798 109.236870,78.401024 
	C108.690536,77.051460 108.144211,75.701897 107.333420,73.849754 
	C106.733421,72.851318 106.397881,72.355461 106.062340,71.859604 
	C105.424149,70.049141 104.785965,68.238678 104.059753,66.178513 
	C114.972153,64.834312 125.140984,66.408661 135.561829,70.255402 
	C136.055817,70.508797 136.484756,70.756485 136.484756,70.756485 
	C136.484756,70.756485 136.977142,70.702835 136.977142,70.702835 
	C138.612595,71.486656 140.248047,72.270485 142.384933,73.354332 
	C143.258682,73.762047 143.631012,73.869743 144.003326,73.977440 
	C152.575363,79.689262 160.638763,85.956825 166.837540,95.046425 
	C167.402222,95.708725 167.660675,95.920837 167.919128,96.132950 
	C167.919128,96.132950 167.945480,96.050354 167.946014,96.340881 
	C168.313126,97.044403 168.679703,97.457390 169.046295,97.870377 
	C169.164597,98.186104 169.282898,98.501831 169.669296,99.236626 
	C170.282089,100.117722 170.626785,100.579758 170.971466,101.041794 
	C170.971466,101.041794 171.002563,101.003136 170.999344,101.314819 
	C171.320389,102.106262 171.644653,102.586014 171.968933,103.065765 
	C172.969193,105.511597 173.969452,107.957436 175.128296,110.961662 
	C175.352676,111.879715 175.559341,112.116417 175.906860,112.230148 
	C176.150146,113.306114 176.393433,114.382088 176.800858,115.990402 
	C177.047943,116.677246 177.130875,116.831741 177.213791,116.986237 
	C177.334335,117.813614 177.454880,118.640984 177.722900,120.092842 
	C178.132935,121.374229 178.395462,122.031136 178.657990,122.688049 
	C178.794861,124.866760 178.931732,127.045471 179.084320,129.989197 
	C179.174515,131.485733 179.249008,132.217239 179.323502,132.948746 
	C174.808685,133.273666 170.298172,133.750290 165.777786,133.878693 
	C161.672501,133.995300 157.556442,133.733002 153.206238,133.065796 
	C152.914490,132.332672 152.861664,132.171509 152.808823,132.010330 
	C152.845978,127.637421 152.883148,123.264519 152.920105,118.063675 
	C152.602020,115.827324 152.284149,114.418915 151.966278,113.010498 
	C151.945541,112.551392 151.924805,112.092285 151.847458,111.029526 
	C151.586060,110.133308 151.381271,109.840759 151.176483,109.548210 
	C150.872375,108.535614 150.568268,107.523018 150.056381,105.987198 
	C149.616013,105.178650 149.383438,104.893349 149.150848,104.608032 
	C147.705231,102.155846 146.259598,99.703659 144.469910,96.804230 
	C143.724991,95.984108 143.324127,95.611229 142.923279,95.238358 
	C141.550354,93.862106 140.177429,92.485863 138.388611,90.768112 
	C137.651230,90.279335 137.329758,90.132057 137.008270,89.984779 
	C137.008270,89.984779 137.000000,90.000702 136.925720,89.765381 
	C136.659180,89.204720 136.378296,89.081612 136.008774,89.160736 
	C136.008774,89.160736 135.768311,88.887344 135.434814,88.615875 
	C134.739975,88.212639 134.378616,88.080879 134.017273,87.949120 
z"/>
<path fill="#16629A" opacity="1.000000" stroke="none" 
	d="
M175.038635,10.811829 
	C175.504166,11.159105 175.969696,11.506384 176.864502,12.159225 
	C177.842468,12.674278 178.391174,12.883767 178.939865,13.093257 
	C178.939865,13.093259 178.982010,13.012134 179.031372,13.266670 
	C179.325470,13.798057 179.627686,13.894217 179.987396,13.809685 
	C181.058640,14.524844 182.129868,15.240005 183.627487,16.243885 
	C184.365723,16.638666 184.677582,16.744726 184.989441,16.850786 
	C184.989441,16.850786 185.235672,17.120113 185.575989,17.380775 
	C186.281174,17.743082 186.646027,17.844723 187.010895,17.946363 
	C187.360443,22.142481 187.383270,26.397392 188.125641,30.522825 
	C189.820007,39.938568 186.611389,46.334557 176.918976,49.769958 
	C176.159409,50.334030 175.890976,50.593884 175.622559,50.853737 
	C175.622559,50.853737 175.254562,50.877258 174.859329,51.012756 
	C174.241852,51.404945 174.019592,51.661636 173.797333,51.918320 
	C171.013519,53.467026 168.229706,55.015732 164.934418,56.870354 
	C163.610458,57.770992 162.797989,58.365711 161.985504,58.960426 
	C161.349426,58.270668 160.217255,57.616898 160.164154,56.884846 
	C159.947876,53.903549 160.062134,50.898285 160.055389,47.208504 
	C159.698074,46.323521 159.339935,46.131889 158.981812,45.940258 
	C157.508240,46.551899 156.034668,47.163536 154.041580,48.001137 
	C153.256744,48.437031 153.048141,48.693161 152.621872,49.307884 
	C152.527344,56.756477 152.707245,63.892677 152.887146,71.028877 
	C152.887146,71.028877 153.070221,70.960777 153.078949,71.300507 
	C153.139160,72.107491 153.190659,72.574753 153.242172,73.042015 
	C153.242172,73.042015 153.041870,73.023773 152.628113,73.029831 
	C152.002716,73.073204 151.791077,73.110512 151.579437,73.147827 
	C151.243683,73.193932 150.921661,73.146584 150.332260,72.767792 
	C150.051147,72.529800 149.966614,72.107475 149.979218,71.632370 
	C149.656464,64.440651 149.321106,57.724026 148.616608,50.962570 
	C147.188431,51.286991 146.129425,51.656246 145.070419,52.025497 
	C144.758530,52.160740 144.493011,52.358295 143.859985,52.860806 
	C143.298615,53.402344 143.151138,53.701241 143.003662,54.000137 
	C143.003662,58.455742 143.003662,62.911343 143.003662,67.945816 
	C141.314697,67.469963 140.281433,67.178848 138.762268,66.590332 
	C138.114105,66.203629 137.951843,66.114319 137.789551,66.025002 
	C137.807571,50.611420 137.825592,35.197838 138.197800,19.222601 
	C139.361343,18.104164 140.170670,17.547384 140.980011,16.990606 
	C140.980011,16.990606 141.001816,16.999725 141.312012,16.943172 
	C142.394104,16.249783 143.166000,15.612947 143.937881,14.976109 
	C144.119507,14.946612 144.301117,14.917117 144.995728,14.860313 
	C145.669418,14.554418 145.830124,14.275828 145.990814,13.997238 
	C147.886826,12.882649 149.782822,11.768061 152.150223,10.343899 
	C153.056442,9.676573 153.491257,9.318820 153.926086,8.961069 
	C153.926086,8.961070 153.983215,8.999480 154.256775,8.936266 
	C154.784363,8.620340 155.038406,8.367628 155.292450,8.114916 
	C155.782166,7.921458 156.271896,7.728001 157.186417,7.281621 
	C158.047272,6.677780 158.483337,6.326861 158.919388,5.975942 
	C163.156601,2.452611 166.185898,6.000252 169.993790,8.104412 
	C170.981094,8.614227 171.490768,8.805803 172.000427,8.997379 
	C172.434784,9.325906 172.869156,9.654431 173.694977,10.252030 
	C174.403824,10.618012 174.721237,10.714921 175.038635,10.811829 
M146.066071,47.745567 
	C146.382797,47.475769 146.699509,47.205967 147.199677,46.753452 
	C147.199677,46.753452 147.455109,46.795692 148.105545,46.713100 
	C148.367584,46.384743 148.629623,46.056389 148.926575,45.342339 
	C148.926575,45.342339 149.099274,44.995697 149.642181,44.391113 
	C149.752213,41.764378 149.963196,39.136761 149.940384,36.511181 
	C149.922089,34.404728 149.180191,33.160889 146.761337,35.189564 
	C146.761337,35.189564 146.453461,35.180893 145.846573,35.238724 
	C145.559982,35.512897 145.273392,35.787071 144.398331,36.608803 
	C143.748123,40.094749 143.097900,43.580696 142.256561,47.304401 
	C142.189941,47.635757 142.309006,47.886787 143.305969,48.233940 
	C143.542831,48.258434 143.779678,48.282925 144.288635,48.547195 
	C144.528458,48.343552 144.768295,48.139904 145.171967,47.741543 
	C145.171967,47.741543 145.425369,47.765209 146.066071,47.745567 
M153.448471,43.340771 
	C160.750275,40.531883 161.988724,37.325432 159.126129,28.027048 
	C157.067947,29.397108 155.087036,30.715750 152.476974,32.552231 
	C152.642532,36.029911 152.808090,39.507587 153.448471,43.340771 
M153.021606,21.429642 
	C153.117340,23.154448 153.213058,24.879253 153.316132,26.736330 
	C160.677322,23.868891 161.443634,21.967745 159.416046,12.188075 
	C155.780243,13.914561 151.879150,15.252824 153.021606,21.429642 
M147.355408,30.488111 
	C148.090134,26.813993 148.824860,23.139874 149.623718,19.145088 
	C141.835983,20.219622 140.717712,22.671377 142.651703,32.672272 
	C144.034088,32.052578 145.348679,31.463276 147.355408,30.488111 
z"/>
<path fill="#14619B" opacity="1.000000" stroke="none" 
	d="
M93.095276,64.018593 
	C94.110878,64.024521 95.126488,64.030457 96.577545,64.354019 
	C97.363014,65.104332 97.713036,65.537025 98.063049,65.969711 
	C98.063049,65.969711 97.996864,65.987267 98.028496,66.273666 
	C98.390877,67.044037 98.721626,67.528000 99.052376,68.011963 
	C99.052376,68.011963 99.222717,68.168892 99.213623,68.594566 
	C99.456207,69.344551 99.707886,69.668861 99.959564,69.993172 
	C100.202866,70.218819 100.432686,70.457443 100.855629,71.141716 
	C101.383965,72.032692 101.705719,72.491013 102.027466,72.949326 
	C102.027466,72.949326 101.993645,72.988937 102.028763,73.252075 
	C102.278893,73.776466 102.493904,74.037712 102.708916,74.298958 
	C102.708916,74.298958 102.658699,74.131813 102.718735,74.523438 
	C103.218460,75.599731 103.658165,76.284401 104.097855,76.969063 
	C104.258362,77.521996 104.418869,78.074928 104.820312,79.073059 
	C105.155853,79.667992 105.250450,79.817726 105.345039,79.967461 
	C103.848694,81.684006 102.448624,83.497459 100.837196,85.098145 
	C96.702934,89.204857 92.101837,92.902969 88.367538,97.337234 
	C82.024506,104.869202 74.091141,108.880630 64.495705,110.182823 
	C61.882645,110.537453 59.347565,111.466698 56.126122,112.218872 
	C54.988499,112.552963 54.501446,112.800407 54.014397,113.047852 
	C53.183315,113.146683 52.352242,113.245514 51.019604,113.475441 
	C50.253624,113.612793 50.080177,113.741669 49.997707,113.993172 
	C49.166256,114.109970 48.334801,114.226768 47.014977,114.484818 
	C46.272877,114.637726 46.110100,114.765480 46.038269,115.009331 
	C45.187893,114.805573 44.337513,114.601822 43.196041,113.914520 
	C42.655567,113.146736 42.406193,112.862495 42.156815,112.578247 
	C41.243263,110.547226 40.329712,108.516197 39.177605,105.941238 
	C38.683586,105.104195 38.428123,104.811096 38.172661,104.517990 
	C37.931297,103.798065 37.689934,103.078140 37.205040,101.868874 
	C36.705078,101.070717 36.448650,100.761902 36.192223,100.453087 
	C35.526390,98.806190 34.860558,97.159294 33.981537,94.985092 
	C43.319477,93.665092 52.816746,92.396767 62.284843,90.938980 
	C65.127190,90.501350 67.888245,89.535744 71.191757,88.340744 
	C78.829735,79.919182 85.962502,71.968887 93.095276,64.018593 
z"/>
<path fill="#19659E" opacity="1.000000" stroke="none" 
	d="
M58.431850,116.167648 
	C58.794586,116.136177 59.157322,116.104706 60.089619,115.996292 
	C61.446808,115.634758 62.234436,115.350151 63.022064,115.065536 
	C63.476086,115.037048 63.930103,115.008560 64.990524,114.896576 
	C65.910591,114.610191 66.224258,114.407318 66.537926,114.204453 
	C68.152519,113.854172 69.767120,113.503891 72.037384,113.050446 
	C73.519623,112.656334 74.346207,112.365395 75.172783,112.074448 
	C75.591324,112.045197 76.009865,112.015953 77.021194,111.918579 
	C77.942528,111.646637 78.271065,111.442818 78.599609,111.238998 
	C79.322639,111.523636 80.045677,111.808266 80.564255,112.661102 
	C80.260605,114.483536 80.161400,115.737762 80.062195,116.991982 
	C79.811974,122.425911 79.561760,127.859848 79.282799,133.917923 
	C66.988823,133.917923 54.919155,133.970551 42.853115,133.785873 
	C42.136597,133.774902 41.449230,131.859283 40.808090,130.034683 
	C40.869480,128.497925 40.871078,127.756447 40.872681,127.014969 
	C41.160374,125.576233 41.448067,124.137497 41.807541,122.106201 
	C41.870003,121.344398 41.860687,121.175148 41.851372,121.005898 
	C42.080128,120.849678 42.288471,120.669815 42.908768,120.636826 
	C44.313076,120.241707 45.285015,119.676064 46.256954,119.110413 
	C46.658466,119.082306 47.059978,119.054192 48.041733,118.942421 
	C48.962093,118.663765 49.302216,118.468765 49.642338,118.273773 
	C50.249340,118.219604 50.856339,118.165436 52.047081,118.004852 
	C52.973366,117.694168 53.315914,117.489906 53.658455,117.285645 
	C54.260109,117.212128 54.861759,117.138618 56.066006,116.985970 
	C57.256351,116.660439 57.844101,116.414047 58.431850,116.167648 
z"/>
<path fill="#176296" opacity="1.000000" stroke="none" 
	d="
M17.039505,98.435631 
	C18.047651,98.006279 19.125647,98.003220 20.607853,97.999756 
	C21.084639,99.714417 21.157209,101.429466 21.259584,103.792297 
	C21.419712,104.775909 21.665043,104.942429 22.025377,104.939636 
	C22.115299,105.268532 22.295534,105.536736 22.800827,106.146667 
	C23.130297,106.702629 23.225019,106.856163 23.319742,107.009705 
	C23.427597,112.251160 23.535454,117.492615 23.069969,122.884796 
	C22.333954,123.086174 22.171280,123.136818 22.008606,123.187462 
	C19.796896,123.069122 17.585188,122.950783 15.118903,122.818817 
	C15.180341,121.566818 15.232754,120.498726 15.506137,118.767059 
	C15.767698,117.407501 15.808289,116.711517 15.848879,116.015533 
	C16.143469,115.210747 16.438059,114.405960 16.786064,113.013687 
	C16.539753,111.990463 16.240025,111.554726 15.940296,111.118980 
	C15.940296,111.118980 15.971198,111.046089 15.905478,110.766968 
	C15.598635,110.226128 15.357510,109.964417 15.116386,109.702705 
	C15.780709,106.089111 16.445032,102.475510 17.039505,98.435631 
z"/>
<path fill="#EEF6F8" opacity="1.000000" stroke="none" 
	d="
M93.091751,63.822266 
	C85.962502,71.968887 78.829735,79.919182 71.394043,88.018280 
	C70.473129,87.564583 69.855141,86.962074 69.075745,86.074409 
	C75.707283,77.928299 82.500237,70.067345 89.804779,62.056801 
	C90.584587,61.819984 90.795250,61.657951 90.948364,61.421101 
	C91.398140,61.320026 91.847908,61.218948 92.651459,61.501911 
	C93.037819,62.335133 93.070396,62.784313 93.102982,63.233498 
	C93.102982,63.233498 93.088234,63.625938 93.091751,63.822266 
z"/>
<path fill="#EEF6F8" opacity="1.000000" stroke="none" 
	d="
M49.070606,73.249992 
	C51.185112,70.552040 53.040264,67.576530 55.514980,65.264069 
	C56.916748,63.954216 59.335098,63.732288 61.774544,63.316826 
	C62.438534,63.806870 62.661713,63.932865 62.923050,63.991283 
	C62.397835,65.505981 62.311787,67.492874 61.274807,68.457306 
	C55.371979,73.947220 49.247032,79.198631 43.183357,84.514877 
	C42.453465,85.154793 41.637539,85.696579 40.506638,86.320023 
	C39.894184,85.669922 39.636574,84.983635 39.075043,84.081970 
	C41.503017,80.966667 44.234909,78.066734 47.554878,74.962730 
	C48.452171,74.255775 48.761391,73.752884 49.070606,73.249992 
z"/>
<path fill="#30709C" opacity="1.000000" stroke="none" 
	d="
M214.144028,133.741150 
	C213.949051,110.108582 213.954147,86.574944 213.947922,62.580856 
	C214.305084,63.746288 214.986938,65.370735 214.994446,66.998283 
	C215.088303,87.361404 215.084457,107.724983 215.113083,128.794418 
	C215.169022,129.661316 215.217575,129.822235 215.266129,129.983154 
	C215.214905,130.741974 215.163696,131.500809 215.015884,132.843781 
	C214.874451,133.588974 214.829620,133.749985 214.784805,133.910995 
	C214.784805,133.910995 214.344101,133.840073 214.144028,133.741150 
z"/>
<path fill="#1E6392" opacity="1.000000" stroke="none" 
	d="
M152.972885,70.566055 
	C152.707245,63.892677 152.527344,56.756477 152.688644,49.719337 
	C153.111221,51.200176 153.192627,52.581951 153.274017,53.963726 
	C153.202225,59.343563 153.130432,64.723404 152.972885,70.566055 
z"/>
<path fill="#1E6392" opacity="1.000000" stroke="none" 
	d="
M148.985764,51.007401 
	C149.321106,57.724026 149.656464,64.440651 149.739319,71.606071 
	C149.486832,72.054871 149.012344,71.967216 149.012344,71.967216 
	C148.986221,71.797371 148.960098,71.627525 148.938263,70.852150 
	C148.879181,69.507835 148.815796,68.769043 148.752411,68.030258 
	C148.801529,66.619431 148.850647,65.208603 148.915771,62.965080 
	C148.863358,60.434387 148.794937,58.736389 148.726517,57.038391 
	C148.774612,56.575077 148.822708,56.111767 148.887802,54.918667 
	C148.931793,53.128387 148.958771,52.067894 148.985764,51.007401 
z"/>
<path fill="#30709C" opacity="1.000000" stroke="none" 
	d="
M192.478088,133.824539 
	C198.449966,133.553146 204.877823,133.389511 211.635925,133.468170 
	C205.622131,133.784409 199.278107,133.858353 192.478088,133.824539 
z"/>
<path fill="#EEF6F8" opacity="1.000000" stroke="none" 
	d="
M205.943069,56.684334 
	C203.068085,55.234459 200.154541,53.439953 197.143829,51.311638 
	C199.999298,52.765121 202.951904,54.552410 205.943069,56.684334 
z"/>
<path fill="#EEF6F8" opacity="1.000000" stroke="none" 
	d="
M214.021271,61.383175 
	C212.135117,60.690674 210.174133,59.665569 208.144135,58.306297 
	C210.032227,58.998276 211.989334,60.024422 214.021271,61.383175 
z"/>
<path fill="#105D91" opacity="1.000000" stroke="none" 
	d="
M165.271698,62.342926 
	C165.564743,63.873398 165.545975,65.728195 165.263992,67.793571 
	C164.987137,66.225189 164.973495,64.446220 165.271698,62.342926 
z"/>
<path fill="#EEF6F8" opacity="1.000000" stroke="none" 
	d="
M81.804077,41.738194 
	C80.586113,42.298500 79.174156,42.603218 77.393890,42.846340 
	C78.553749,42.350700 80.081917,41.916653 81.804077,41.738194 
z"/>
<path fill="#EEF6F8" opacity="1.000000" stroke="none" 
	d="
M151.728271,113.201477 
	C152.284149,114.418915 152.602020,115.827324 152.837799,117.603531 
	C152.333908,116.445030 151.912094,114.918747 151.728271,113.201477 
z"/>
<path fill="#EEF6F8" opacity="1.000000" stroke="none" 
	d="
M148.616608,50.962570 
	C148.958771,52.067894 148.931793,53.128387 148.811615,54.575634 
	C147.728058,53.990711 146.737701,53.019032 145.408875,52.036423 
	C146.129425,51.656246 147.188431,51.286991 148.616608,50.962570 
z"/>
<path fill="#EEF6F8" opacity="1.000000" stroke="none" 
	d="
M162.190994,59.225845 
	C162.797989,58.365711 163.610458,57.770992 164.729523,57.140015 
	C164.156219,57.899590 163.276352,58.695427 162.190994,59.225845 
z"/>
<path fill="#EEF6F8" opacity="1.000000" stroke="none" 
	d="
M88.812408,40.730934 
	C87.900063,41.258423 86.806816,41.538120 85.369888,41.758656 
	C86.227974,41.294044 87.429749,40.888592 88.812408,40.730934 
z"/>
<path fill="#EEF6F8" opacity="1.000000" stroke="none" 
	d="
M45.861084,119.067223 
	C45.285015,119.676064 44.313076,120.241707 43.109467,120.588318 
	C43.740265,119.920868 44.602737,119.472443 45.861084,119.067223 
z"/>
<path fill="#EEF6F8" opacity="1.000000" stroke="none" 
	d="
M148.503021,57.308990 
	C148.794937,58.736389 148.863358,60.434387 148.835892,62.547832 
	C148.586502,61.168716 148.432999,59.374153 148.503021,57.308990 
z"/>
<path fill="#EEF6F8" opacity="1.000000" stroke="none" 
	d="
M153.502258,53.678963 
	C153.192627,52.581951 153.111221,51.200176 152.963058,49.406944 
	C153.048141,48.693161 153.256744,48.437031 153.771042,48.216190 
	C153.923508,49.934921 153.827011,51.664562 153.502258,53.678963 
z"/>
<path fill="#EEF6F8" opacity="1.000000" stroke="none" 
	d="
M52.863857,45.837250 
	C52.226898,46.328278 51.419449,46.557121 50.293633,46.720806 
	C50.881294,46.295456 51.787331,45.935261 52.863857,45.837250 
z"/>
<path fill="#EEF6F8" opacity="1.000000" stroke="none" 
	d="
M60.821190,44.745316 
	C60.198048,45.241089 59.398476,45.490807 58.285229,45.666924 
	C58.862621,45.228634 59.753685,44.863949 60.821190,44.745316 
z"/>
<path fill="#EEF6F8" opacity="1.000000" stroke="none" 
	d="
M67.815628,43.729664 
	C67.193428,44.206783 66.395401,44.441334 65.283150,44.613979 
	C65.859222,44.197083 66.749504,43.842087 67.815628,43.729664 
z"/>
<path fill="#EEF6F8" opacity="1.000000" stroke="none" 
	d="
M115.486977,38.987671 
	C114.705948,38.650337 114.219582,38.252903 113.388954,37.774780 
	C114.168037,37.630714 115.291397,37.567337 116.414749,37.503960 
	C116.203712,37.978493 115.992683,38.453033 115.486977,38.987671 
z"/>
<path fill="#EEF6F8" opacity="1.000000" stroke="none" 
	d="
M104.345810,76.746475 
	C103.658165,76.284401 103.218460,75.599731 102.715843,74.610657 
	C103.299866,75.045464 103.946815,75.784676 104.345810,76.746475 
z"/>
<path fill="#105D91" opacity="1.000000" stroke="none" 
	d="
M164.909332,80.413284 
	C165.230927,81.486771 165.458801,82.977257 165.471893,84.739975 
	C165.109940,83.618233 164.962769,82.224258 164.909332,80.413284 
z"/>
<path fill="#EEF6F8" opacity="1.000000" stroke="none" 
	d="
M62.869766,114.823441 
	C62.234436,115.350151 61.446808,115.634758 60.335960,115.870560 
	C60.914318,115.408287 61.815891,114.994804 62.869766,114.823441 
z"/>
<path fill="#EEF6F8" opacity="1.000000" stroke="none" 
	d="
M140.636719,16.990105 
	C140.170670,17.547384 139.361343,18.104164 138.247650,18.745415 
	C138.726685,18.216457 139.510071,17.603029 140.636719,16.990105 
z"/>
<path fill="#EEF6F8" opacity="1.000000" stroke="none" 
	d="
M180.891098,52.082336 
	C180.394211,52.721073 179.522766,53.326214 178.329376,53.970123 
	C178.843781,53.355511 179.680161,52.702126 180.891098,52.082336 
z"/>
<path fill="#EEF6F8" opacity="1.000000" stroke="none" 
	d="
M143.589096,14.978524 
	C143.166000,15.612947 142.394104,16.249783 141.306320,16.932524 
	C141.740372,16.312599 142.490341,15.646769 143.589096,14.978524 
z"/>
<path fill="#EEF6F8" opacity="1.000000" stroke="none" 
	d="
M187.723969,48.037785 
	C187.255737,48.662773 186.430710,49.265285 185.293930,49.904861 
	C185.777176,49.299717 186.572159,48.657513 187.723969,48.037785 
z"/>
<path fill="#EEF6F8" opacity="1.000000" stroke="none" 
	d="
M190.957672,47.223312 
	C190.285233,47.651512 189.540314,47.807297 188.418167,48.026016 
	C188.989014,47.709595 189.937103,47.330250 190.957672,47.223312 
z"/>
<path fill="#EEF6F8" opacity="1.000000" stroke="none" 
	d="
M80.334747,116.725899 
	C80.161400,115.737762 80.260605,114.483536 80.608643,112.938187 
	C80.774078,113.917984 80.690689,115.188896 80.334747,116.725899 
z"/>
<path fill="#EEF6F8" opacity="1.000000" stroke="none" 
	d="
M54.161812,113.262756 
	C54.501446,112.800407 54.988499,112.552963 55.752239,112.358521 
	C55.455692,112.766891 54.882458,113.122276 54.161812,113.262756 
z"/>
<path fill="#EEF6F8" opacity="1.000000" stroke="none" 
	d="
M109.863205,37.769775 
	C109.494370,38.188168 108.992790,38.390755 108.227509,38.500534 
	C108.552681,38.123142 109.141571,37.838554 109.863205,37.769775 
z"/>
<path fill="#EEF6F8" opacity="1.000000" stroke="none" 
	d="
M178.935272,12.795609 
	C178.391174,12.883767 177.842468,12.674278 177.157349,12.197995 
	C177.657501,12.120120 178.294083,12.309040 178.935272,12.795609 
z"/>
<path fill="#EEF6F8" opacity="1.000000" stroke="none" 
	d="
M74.869324,42.786369 
	C74.501335,43.208588 74.000389,43.410645 73.232117,43.530231 
	C73.555321,43.153908 74.145844,42.860058 74.869324,42.786369 
z"/>
<path fill="#30709C" opacity="1.000000" stroke="none" 
	d="
M183.924957,129.970596 
	C184.365402,131.014069 184.703354,132.016357 185.050201,133.356812 
	C184.727097,133.604065 184.395081,133.513168 183.960724,132.820007 
	C183.775177,131.473663 183.692001,130.729584 183.608810,129.985504 
	C183.608810,129.985504 183.822479,129.929398 183.924957,129.970596 
z"/>
<path fill="#EEF6F8" opacity="1.000000" stroke="none" 
	d="
M182.752411,125.137329 
	C183.139297,125.518250 183.316956,126.025017 183.382599,126.784561 
	C183.028107,126.445953 182.785645,125.854568 182.752411,125.137329 
z"/>
<path fill="#EEF6F8" opacity="1.000000" stroke="none" 
	d="
M40.647820,127.189667 
	C40.871078,127.756447 40.869480,128.497925 40.749081,129.593063 
	C40.561176,129.085922 40.492065,128.225143 40.647820,127.189667 
z"/>
<path fill="#EEF6F8" opacity="1.000000" stroke="none" 
	d="
M74.829636,112.035728 
	C74.346207,112.365395 73.519623,112.656334 72.357330,112.891014 
	C72.843246,112.555496 73.664871,112.276253 74.829636,112.035728 
z"/>
<path fill="#EEF6F8" opacity="1.000000" stroke="none" 
	d="
M179.520966,132.750656 
	C179.249008,132.217239 179.174515,131.485733 179.188263,130.394867 
	C179.423798,130.874527 179.571121,131.713547 179.520966,132.750656 
z"/>
<path fill="#EEF6F8" opacity="1.000000" stroke="none" 
	d="
M183.434296,130.207184 
	C183.692001,130.729584 183.775177,131.473663 183.796814,132.590302 
	C183.576752,132.118179 183.418259,131.273529 183.434296,130.207184 
z"/>
<path fill="#EEF6F8" opacity="1.000000" stroke="none" 
	d="
M148.544556,68.226349 
	C148.815796,68.769043 148.879181,69.507835 148.852142,70.609200 
	C148.620056,70.121994 148.478378,69.272217 148.544556,68.226349 
z"/>
<path fill="#EEF6F8" opacity="1.000000" stroke="none" 
	d="
M142.971100,95.529388 
	C143.324127,95.611229 143.724991,95.984108 144.191711,96.633018 
	C143.844696,96.546165 143.431824,96.183289 142.971100,95.529388 
z"/>
<path fill="#EEF6F8" opacity="1.000000" stroke="none" 
	d="
M171.862244,8.755302 
	C171.490768,8.805803 170.981094,8.614227 170.337860,8.177273 
	C170.710876,8.125670 171.217468,8.319449 171.862244,8.755302 
z"/>
<path fill="#EEF6F8" opacity="1.000000" stroke="none" 
	d="
M170.966324,100.729019 
	C170.626785,100.579758 170.282089,100.117722 169.900116,99.353378 
	C170.228958,99.506119 170.595078,99.961182 170.966324,100.729019 
z"/>
<path fill="#EEF6F8" opacity="1.000000" stroke="none" 
	d="
M172.036057,95.275429 
	C172.395676,95.409126 172.762299,95.858101 173.163818,96.607697 
	C172.813492,96.469109 172.428268,96.029907 172.036057,95.275429 
z"/>
<path fill="#EEF6F8" opacity="1.000000" stroke="none" 
	d="
M171.969498,102.755516 
	C171.644653,102.586014 171.320389,102.106262 170.975662,101.322083 
	C171.293488,101.493523 171.631775,101.969391 171.969498,102.755516 
z"/>
<path fill="#EEF6F8" opacity="1.000000" stroke="none" 
	d="
M169.019073,97.576187 
	C168.679703,97.457390 168.313126,97.044403 167.903168,96.347473 
	C168.237137,96.469688 168.614487,96.875839 169.019073,97.576187 
z"/>
<path fill="#EEF6F8" opacity="1.000000" stroke="none" 
	d="
M153.626587,8.984873 
	C153.491257,9.318820 153.056442,9.676573 152.328781,10.070989 
	C152.466339,9.741328 152.896713,9.375003 153.626587,8.984873 
z"/>
<path fill="#E3EFF3" opacity="1.000000" stroke="none" 
	d="
M66.174377,86.410820 
	C66.448601,86.135338 66.888206,86.050751 67.661819,86.023727 
	C67.443802,86.254768 66.891785,86.428238 66.174377,86.410820 
z"/>
<path fill="#EEF6F8" opacity="1.000000" stroke="none" 
	d="
M158.623108,5.993486 
	C158.483337,6.326861 158.047272,6.677780 157.317749,7.049112 
	C157.458450,6.716693 157.892624,6.363861 158.623108,5.993486 
z"/>
<path fill="#EEF6F8" opacity="1.000000" stroke="none" 
	d="
M178.080078,107.077652 
	C178.414902,107.288078 178.722015,107.823326 179.003845,108.677826 
	C178.669815,108.465538 178.361099,107.934006 178.080078,107.077652 
z"/>
<path fill="#EEF6F8" opacity="1.000000" stroke="none" 
	d="
M116.311615,82.528503 
	C116.724686,82.311600 117.407188,82.308647 118.358788,82.529831 
	C117.945602,82.750137 117.263336,82.746300 116.311615,82.528503 
z"/>
<path fill="#EEF6F8" opacity="1.000000" stroke="none" 
	d="
M15.949941,111.378006 
	C16.240025,111.554726 16.539753,111.990463 16.752106,112.693939 
	C16.429684,112.520119 16.194633,112.078583 15.949941,111.378006 
z"/>
<path fill="#EEF6F8" opacity="1.000000" stroke="none" 
	d="
M15.906532,85.173607 
	C15.917502,85.553505 15.660104,86.018600 15.155913,86.599403 
	C15.152136,86.229668 15.395149,85.744240 15.906532,85.173607 
z"/>
<path fill="#EEF6F8" opacity="1.000000" stroke="none" 
	d="
M159.070953,46.163807 
	C159.339935,46.131889 159.698074,46.323521 159.972809,46.755394 
	C159.580215,46.872105 159.337112,46.669346 159.070953,46.163807 
z"/>
<path fill="#EEF6F8" opacity="1.000000" stroke="none" 
	d="
M106.053574,72.181198 
	C106.397881,72.355461 106.733421,72.851318 107.084457,73.657776 
	C106.748238,73.479851 106.396523,72.991318 106.053574,72.181198 
z"/>
<path fill="#EEF6F8" opacity="1.000000" stroke="none" 
	d="
M153.429901,72.873199 
	C153.190659,72.574753 153.139160,72.107491 153.176514,71.296524 
	C153.382812,71.536682 153.500229,72.120529 153.429901,72.873199 
z"/>
<path fill="#EEF6F8" opacity="1.000000" stroke="none" 
	d="
M102.015594,72.657539 
	C101.705719,72.491013 101.383965,72.032692 101.062477,71.279419 
	C101.376404,71.444901 101.690063,71.905327 102.015594,72.657539 
z"/>
<path fill="#EEF6F8" opacity="1.000000" stroke="none" 
	d="
M96.946259,61.801987 
	C96.731407,61.492229 96.553787,60.783581 96.672119,59.936123 
	C96.973206,60.332577 96.978348,60.867840 96.946259,61.801987 
z"/>
<path fill="#EEF6F8" opacity="1.000000" stroke="none" 
	d="
M58.099838,116.116455 
	C57.844101,116.414047 57.256351,116.660439 56.344803,116.860909 
	C56.603279,116.565079 57.185551,116.315163 58.099838,116.116455 
z"/>
<path fill="#15629B" opacity="1.000000" stroke="none" 
	d="
M99.050232,67.705750 
	C98.721626,67.528000 98.390877,67.044037 98.053421,66.250160 
	C98.380508,66.426682 98.714302,66.913109 99.050232,67.705750 
z"/>
<path fill="#15629B" opacity="1.000000" stroke="none" 
	d="
M98.057556,65.684937 
	C97.713036,65.537025 97.363014,65.104332 96.957245,64.383911 
	C96.901505,64.096184 96.977638,64.024582 97.218246,64.085007 
	C97.458855,64.145439 97.885986,64.276535 97.885986,64.276535 
	C97.941345,64.651077 97.996704,65.025627 98.057556,65.684937 
z"/>
<path fill="#EEF6F8" opacity="1.000000" stroke="none" 
	d="
M178.750458,122.312820 
	C178.395462,122.031136 178.132935,121.374229 177.904373,120.354805 
	C178.239868,120.640724 178.541382,121.289154 178.750458,122.312820 
z"/>
<path fill="#EEF6F8" opacity="1.000000" stroke="none" 
	d="
M15.604440,116.273834 
	C15.808289,116.711517 15.767698,117.407501 15.489275,118.368294 
	C15.287629,117.932777 15.323815,117.232460 15.604440,116.273834 
z"/>
<path fill="#EEF6F8" opacity="1.000000" stroke="none" 
	d="
M99.001106,57.757050 
	C98.983482,57.336426 99.261246,56.858421 99.796967,56.267063 
	C99.802109,56.669029 99.549301,57.184345 99.001106,57.757050 
z"/>
<path fill="#EEF6F8" opacity="1.000000" stroke="none" 
	d="
M41.697323,121.075821 
	C41.860687,121.175148 41.870003,121.344398 41.767128,121.741821 
	C41.550266,121.784630 41.423519,121.606964 41.354477,121.409164 
	C41.333992,121.350471 41.475822,121.235123 41.697323,121.075821 
z"/>
<path fill="#D4E5EC" opacity="1.000000" stroke="none" 
	d="
M21.994095,104.739716 
	C21.665043,104.942429 21.419712,104.775909 21.347355,104.212288 
	C21.679848,104.080559 21.865677,104.265656 21.994095,104.739716 
z"/>
<path fill="#EEF6F8" opacity="1.000000" stroke="none" 
	d="
M177.355133,116.874390 
	C177.130875,116.831741 177.047943,116.677246 176.995087,116.261444 
	C177.182251,116.254280 177.339355,116.508408 177.355133,116.874390 
z"/>
<path fill="#EEF6F8" opacity="1.000000" stroke="none" 
	d="
M53.350079,117.246262 
	C53.315914,117.489906 52.973366,117.694168 52.323368,117.865051 
	C52.357841,117.623405 52.699772,117.415146 53.350079,117.246262 
z"/>
<path fill="#EEF6F8" opacity="1.000000" stroke="none" 
	d="
M49.340939,118.234787 
	C49.302216,118.468765 48.962093,118.663765 48.320465,118.820000 
	C48.359154,118.586090 48.699345,118.390945 49.340939,118.234787 
z"/>
<path fill="#EEF6F8" opacity="1.000000" stroke="none" 
	d="
M36.202415,100.765038 
	C36.448650,100.761902 36.705078,101.070717 36.980770,101.687965 
	C36.737560,101.689926 36.475086,101.383461 36.202415,100.765038 
z"/>
<path fill="#EEF6F8" opacity="1.000000" stroke="none" 
	d="
M214.977966,133.894791 
	C214.829620,133.749985 214.874451,133.588974 215.063171,133.222626 
	C215.300827,133.233780 215.412231,133.445587 215.471832,133.671066 
	C215.482376,133.710953 215.276855,133.807953 214.977966,133.894791 
z"/>
<path fill="#EEF6F8" opacity="1.000000" stroke="none" 
	d="
M182.206726,120.674919 
	C182.431595,120.722496 182.610519,121.056442 182.726288,121.677963 
	C182.495697,121.630791 182.328247,121.296036 182.206726,120.674919 
z"/>
<path fill="#EEF6F8" opacity="1.000000" stroke="none" 
	d="
M174.184723,98.850845 
	C174.422485,98.838058 174.681427,99.121956 174.965744,99.701508 
	C174.729385,99.713959 174.467651,99.430740 174.184723,98.850845 
z"/>
<path fill="#EEF6F8" opacity="1.000000" stroke="none" 
	d="
M22.104206,123.331680 
	C22.171280,123.136818 22.333954,123.086174 22.744776,123.096588 
	C22.728552,123.263741 22.464178,123.369820 22.104206,123.331680 
z"/>
<path fill="#EEF6F8" opacity="1.000000" stroke="none" 
	d="
M215.401550,129.889740 
	C215.217575,129.822235 215.169022,129.661316 215.190308,129.258148 
	C215.621826,129.198303 215.714111,129.458450 215.401550,129.889740 
z"/>
<path fill="#EEF6F8" opacity="1.000000" stroke="none" 
	d="
M38.185265,104.817093 
	C38.428123,104.811096 38.683586,105.104195 38.948616,105.696457 
	C38.704750,105.702477 38.451309,105.409332 38.185265,104.817093 
z"/>
<path fill="#EEF6F8" opacity="1.000000" stroke="none" 
	d="
M149.159332,104.888298 
	C149.383438,104.893349 149.616013,105.178650 149.842484,105.750168 
	C149.613510,105.747101 149.390656,105.457832 149.159332,104.888298 
z"/>
<path fill="#D4E5EC" opacity="1.000000" stroke="none" 
	d="
M23.444359,106.876343 
	C23.225019,106.856163 23.130297,106.702629 23.007317,106.279999 
	C23.175697,106.254921 23.372335,106.498947 23.444359,106.876343 
z"/>
<path fill="#EEF6F8" opacity="1.000000" stroke="none" 
	d="
M15.145359,109.974266 
	C15.357510,109.964417 15.598635,110.226128 15.866115,110.762772 
	C15.653091,110.773743 15.413713,110.509781 15.145359,109.974266 
z"/>
<path fill="#EEF6F8" opacity="1.000000" stroke="none" 
	d="
M151.159073,109.816589 
	C151.381271,109.840759 151.586060,110.133308 151.741974,110.700027 
	C151.509277,110.677780 151.325470,110.381371 151.159073,109.816589 
z"/>
<path fill="#EEF6F8" opacity="1.000000" stroke="none" 
	d="
M179.154694,109.863007 
	C179.376740,109.873337 179.594452,110.152550 179.788361,110.705284 
	C179.559814,110.696510 179.355087,110.414207 179.154694,109.863007 
z"/>
<path fill="#EEF6F8" opacity="1.000000" stroke="none" 
	d="
M66.253876,114.182648 
	C66.224258,114.407318 65.910591,114.610191 65.310257,114.773117 
	C65.338989,114.542397 65.654404,114.351624 66.253876,114.182648 
z"/>
<path fill="#EEF6F8" opacity="1.000000" stroke="none" 
	d="
M152.663956,132.108002 
	C152.861664,132.171509 152.914490,132.332672 152.916870,132.743134 
	C152.750626,132.730194 152.634857,132.467926 152.663956,132.108002 
z"/>
<path fill="#EEF6F8" opacity="1.000000" stroke="none" 
	d="
M78.305000,111.208755 
	C78.271065,111.442818 77.942528,111.646637 77.317245,111.805222 
	C77.350471,111.566170 77.680435,111.372353 78.305000,111.208755 
z"/>
<path fill="#EEF6F8" opacity="1.000000" stroke="none" 
	d="
M46.173073,115.013321 
	C46.110100,114.765480 46.272877,114.637726 46.662609,114.717850 
	C46.654053,114.923790 46.490475,114.993011 46.173073,115.013321 
z"/>
<path fill="#EEF6F8" opacity="1.000000" stroke="none" 
	d="
M175.899841,111.995621 
	C175.559341,112.116417 175.352676,111.879715 175.312805,111.275734 
	C175.628021,111.195206 175.812729,111.438431 175.899841,111.995621 
z"/>
<path fill="#EEF6F8" opacity="1.000000" stroke="none" 
	d="
M180.177002,112.753098 
	C180.400574,112.780579 180.603058,113.092255 180.772247,113.690094 
	C180.544601,113.663277 180.350250,113.350288 180.177002,112.753098 
z"/>
<path fill="#EEF6F8" opacity="1.000000" stroke="none" 
	d="
M42.172558,112.868469 
	C42.406193,112.862495 42.655567,113.146736 42.916176,113.723312 
	C42.681034,113.729988 42.434669,113.444336 42.172558,112.868469 
z"/>
<path fill="#EEF6F8" opacity="1.000000" stroke="none" 
	d="
M50.141262,114.000610 
	C50.080177,113.741669 50.253624,113.612793 50.663063,113.697609 
	C50.654995,113.912697 50.480576,113.985817 50.141262,114.000610 
z"/>
<path fill="#EEF6F8" opacity="1.000000" stroke="none" 
	d="
M97.865623,64.023560 
	C97.885986,64.276535 97.458855,64.145439 97.256927,64.049881 
	C97.055008,63.954330 97.102615,63.480282 97.152130,63.247280 
	C97.416176,63.266380 97.630714,63.518482 97.865623,64.023560 
z"/>
<path fill="#EEF6F8" opacity="1.000000" stroke="none" 
	d="
M169.088196,59.169563 
	C169.101410,59.396805 168.831985,59.648907 168.278305,59.924046 
	C168.264557,59.696201 168.535034,59.445316 169.088196,59.169563 
z"/>
<path fill="#EEF6F8" opacity="1.000000" stroke="none" 
	d="
M97.930206,58.900311 
	C97.833282,58.653534 98.037521,58.305672 98.527222,57.842068 
	C98.618912,58.083958 98.425140,58.441589 97.930206,58.900311 
z"/>
<path fill="#EEF6F8" opacity="1.000000" stroke="none" 
	d="
M206.840302,57.446381 
	C206.682175,57.571827 206.398285,57.540142 206.042007,57.263466 
	C206.250183,57.020035 206.498489,57.110291 206.840302,57.446381 
z"/>
<path fill="#EEF6F8" opacity="1.000000" stroke="none" 
	d="
M143.223907,53.902588 
	C143.151138,53.701241 143.298615,53.402344 143.727264,53.072586 
	C143.907394,53.360535 143.719299,53.614971 143.223907,53.902588 
z"/>
<path fill="#EEF6F8" opacity="1.000000" stroke="none" 
	d="
M174.045410,51.875679 
	C174.019592,51.661636 174.241852,51.404945 174.727432,51.141602 
	C174.758347,51.367638 174.525925,51.600330 174.045410,51.875679 
z"/>
<path fill="#EEF6F8" opacity="1.000000" stroke="none" 
	d="
M196.855453,50.727936 
	C196.658752,50.847858 196.304184,50.736809 195.808929,50.378677 
	C196.011353,50.253384 196.354462,50.375175 196.855453,50.727936 
z"/>
<path fill="#EEF6F8" opacity="1.000000" stroke="none" 
	d="
M175.908844,50.823410 
	C175.890976,50.593884 176.159409,50.334030 176.715485,50.043167 
	C176.733810,50.272469 176.464462,50.532776 175.908844,50.823410 
z"/>
<path fill="#EEF6F8" opacity="1.000000" stroke="none" 
	d="
M137.669647,66.197433 
	C137.951843,66.114319 138.114105,66.203629 138.409500,66.536964 
	C138.211655,66.643951 137.880676,66.506912 137.669647,66.197433 
z"/>
<path fill="#EEF6F8" opacity="1.000000" stroke="none" 
	d="
M94.196373,40.147873 
	C94.157906,40.353695 93.862488,40.528099 93.307343,40.641777 
	C93.344887,40.426189 93.642159,40.271320 94.196373,40.147873 
z"/>
<path fill="#EEF6F8" opacity="1.000000" stroke="none" 
	d="
M186.841400,17.714581 
	C186.646027,17.844723 186.281174,17.743082 185.757629,17.398121 
	C185.956604,17.264135 186.314270,17.373466 186.841400,17.714581 
z"/>
<path fill="#EEF6F8" opacity="1.000000" stroke="none" 
	d="
M184.856750,16.644440 
	C184.677582,16.744726 184.365723,16.638666 183.946564,16.298460 
	C184.186096,16.066093 184.481033,16.190687 184.856750,16.644440 
z"/>
<path fill="#EEF6F8" opacity="1.000000" stroke="none" 
	d="
M145.788956,14.062254 
	C145.830124,14.275828 145.669418,14.554418 145.261017,14.784136 
	C145.136032,14.467923 145.327301,14.265258 145.788956,14.062254 
z"/>
<path fill="#EEF6F8" opacity="1.000000" stroke="none" 
	d="
M179.863525,13.612951 
	C179.627686,13.894217 179.325470,13.798057 178.991699,13.289374 
	C179.231842,13.060024 179.510834,13.179582 179.863525,13.612951 
z"/>
<path fill="#EEF6F8" opacity="1.000000" stroke="none" 
	d="
M174.896423,10.612991 
	C174.721237,10.714921 174.403824,10.618012 173.976044,10.287289 
	C174.209366,10.056633 174.505554,10.176858 174.896423,10.612991 
z"/>
<path fill="#EEF6F8" opacity="1.000000" stroke="none" 
	d="
M155.020325,8.150469 
	C155.038406,8.367628 154.784363,8.620340 154.252640,8.902100 
	C154.232712,8.682772 154.490463,8.434397 155.020325,8.150469 
z"/>
<path fill="#EEF6F8" opacity="1.000000" stroke="none" 
	d="
M111.110809,82.438080 
	C111.022537,82.302849 111.502357,82.170486 111.739380,82.246384 
	C111.976395,82.322273 111.641075,82.645653 111.641075,82.645653 
	C111.641075,82.645653 111.199081,82.573311 111.110809,82.438080 
z"/>
<path fill="#EEF6F8" opacity="1.000000" stroke="none" 
	d="
M167.865906,95.887024 
	C167.660675,95.920837 167.402222,95.708725 167.113312,95.236816 
	C167.326126,95.198380 167.569412,95.419739 167.865906,95.887024 
z"/>
<path fill="#EEF6F8" opacity="1.000000" stroke="none" 
	d="
M171.186279,93.894257 
	C171.420212,93.869255 171.687988,94.135696 171.998657,94.690903 
	C171.767731,94.714996 171.493927,94.450348 171.186279,93.894257 
z"/>
<path fill="#EEF6F8" opacity="1.000000" stroke="none" 
	d="
M169.174500,90.952911 
	C169.396881,90.923798 169.663803,91.175995 169.984283,91.707291 
	C169.764893,91.735664 169.491959,91.484947 169.174500,90.952911 
z"/>
<path fill="#EEF6F8" opacity="1.000000" stroke="none" 
	d="
M137.132111,90.219795 
	C137.329758,90.132057 137.651230,90.279335 138.076080,90.678024 
	C137.871613,90.771240 137.563782,90.613029 137.132111,90.219795 
z"/>
<path fill="#EEF6F8" opacity="1.000000" stroke="none" 
	d="
M136.120148,89.359604 
	C136.378296,89.081612 136.659180,89.204720 136.933594,89.760345 
	C136.699356,89.946312 136.437958,89.802261 136.120148,89.359604 
z"/>
<path fill="#EEF6F8" opacity="1.000000" stroke="none" 
	d="
M134.170898,88.201324 
	C134.378616,88.080879 134.739975,88.212639 135.253937,88.595322 
	C135.045868,88.715332 134.685211,88.584435 134.170898,88.201324 
z"/>
<path fill="#EEF6F8" opacity="1.000000" stroke="none" 
	d="
M164.645248,85.108894 
	C164.888824,85.090019 165.008911,85.226372 165.200531,85.625687 
	C165.021957,85.680466 164.771866,85.472290 164.645248,85.108894 
z"/>
<path fill="#EEF6F8" opacity="1.000000" stroke="none" 
	d="
M126.202454,84.422043 
	C126.378815,84.271683 126.741508,84.324928 127.278778,84.601379 
	C127.098495,84.758278 126.743637,84.691956 126.202454,84.422043 
z"/>
<path fill="#EEF6F8" opacity="1.000000" stroke="none" 
	d="
M16.824833,84.139648 
	C16.914934,84.348969 16.759415,84.663353 16.351307,85.072189 
	C16.258883,84.859329 16.419048,84.552017 16.824833,84.139648 
z"/>
<path fill="#EEF6F8" opacity="1.000000" stroke="none" 
	d="
M122.236351,83.372726 
	C122.421860,83.179810 122.831200,83.205544 123.462212,83.455002 
	C123.275986,83.649612 122.868080,83.620491 122.236351,83.372726 
z"/>
<path fill="#EEF6F8" opacity="1.000000" stroke="none" 
	d="
M17.781815,83.109924 
	C17.854786,83.304977 17.695415,83.604919 17.286417,83.987915 
	C17.207685,83.785591 17.378578,83.500206 17.781815,83.109924 
z"/>
<path fill="#EEF6F8" opacity="1.000000" stroke="none" 
	d="
M173.154922,97.064896 
	C173.371094,97.037224 173.616150,97.256088 173.867416,97.733139 
	C173.545761,97.864037 173.315826,97.637405 173.154922,97.064896 
z"/>
<path fill="#EEF6F8" opacity="1.000000" stroke="none" 
	d="
M109.209076,78.697495 
	C109.452370,78.727798 109.667862,79.054565 109.832451,79.680511 
	C109.581451,79.651108 109.381371,79.322533 109.209076,78.697495 
z"/>
<path fill="#EEF6F8" opacity="1.000000" stroke="none" 
	d="
M105.466705,79.840576 
	C105.250450,79.817726 105.155853,79.667992 105.052551,79.252716 
	C105.225357,79.229347 105.406860,79.471519 105.466705,79.840576 
z"/>
<path fill="#EEF6F8" opacity="1.000000" stroke="none" 
	d="
M24.663933,75.077057 
	C24.891405,75.327744 24.754301,75.609879 24.223158,75.889343 
	C24.053902,75.649284 24.210649,75.389900 24.663933,75.077057 
z"/>
<path fill="#1E6392" opacity="1.000000" stroke="none" 
	d="
M151.738602,73.393158 
	C151.791077,73.110512 152.002716,73.073204 152.533997,72.994370 
	C152.535034,73.181396 152.216400,73.409935 151.738602,73.393158 
z"/>
<path fill="#EEF6F8" opacity="1.000000" stroke="none" 
	d="
M143.834381,73.733475 
	C143.631012,73.869743 143.258682,73.762047 142.719482,73.408081 
	C142.923538,73.271042 143.294495,73.380280 143.834381,73.733475 
z"/>
<path fill="#EEF6F8" opacity="1.000000" stroke="none" 
	d="
M102.728470,74.029289 
	C102.493904,74.037712 102.278893,73.776466 102.054642,73.249237 
	C102.279610,73.242050 102.513817,73.500832 102.728470,74.029289 
z"/>
<path fill="#EEF6F8" opacity="1.000000" stroke="none" 
	d="
M149.119339,72.208008 
	C149.012344,71.967216 149.486832,72.054871 149.726715,72.081177 
	C149.966614,72.107475 150.051147,72.529800 150.086975,72.742126 
	C149.823975,72.785904 149.525162,72.617355 149.119339,72.208008 
z"/>
<path fill="#EEF6F8" opacity="1.000000" stroke="none" 
	d="
M136.834503,70.520737 
	C136.977142,70.702835 136.484756,70.756485 136.484756,70.756485 
	C136.484756,70.756485 136.055817,70.508797 135.940811,70.289345 
	C136.150970,70.041985 136.439651,70.131569 136.834503,70.520737 
z"/>
<path fill="#15629B" opacity="1.000000" stroke="none" 
	d="
M99.957367,69.670090 
	C99.707886,69.668861 99.456207,69.344551 99.174904,68.703705 
	C99.415245,68.707123 99.685211,69.027069 99.957367,69.670090 
z"/>
<path fill="#EEF6F8" opacity="1.000000" stroke="none" 
	d="
M30.690407,68.077042 
	C30.915371,68.337318 30.767452,68.614113 30.219967,68.876518 
	C30.059381,68.634758 30.225092,68.378571 30.690407,68.077042 
z"/>
<path fill="#E3EFF3" opacity="1.000000" stroke="none" 
	d="
M93.373840,63.093117 
	C93.070396,62.784313 93.037819,62.335133 92.996605,61.548225 
	C93.544479,61.210499 94.100975,61.210499 94.956261,61.210499 
	C94.366653,61.993710 94.005669,62.473221 93.373840,63.093117 
z"/>
<path fill="#E9F3F6" opacity="1.000000" stroke="none" 
	d="
M48.803642,73.362366 
	C48.761391,73.752884 48.452171,74.255775 47.837738,74.815781 
	C47.867245,74.406853 48.201958,73.940788 48.803642,73.362366 
z"/>
<path fill="#E9F3F6" opacity="1.000000" stroke="none" 
	d="
M62.874939,63.771187 
	C62.661713,63.932865 62.438534,63.806870 62.145958,63.451275 
	C62.374516,63.155861 62.637321,63.243141 62.874939,63.771187 
z"/>
<path fill="#E3EFF3" opacity="1.000000" stroke="none" 
	d="
M90.728851,61.376202 
	C90.795250,61.657951 90.584587,61.819984 90.116096,61.937492 
	C90.008446,61.657490 90.206284,61.445332 90.728851,61.376202 
z"/>
<path fill="#E3EDF1" opacity="1.000000" stroke="none" 
	d="
M199.623734,127.872513 
	C197.434067,128.312378 195.244400,128.752228 192.599457,129.283539 
	C192.599457,115.363556 192.599457,101.998283 192.599457,86.909645 
	C195.554688,89.533028 197.676285,91.416389 199.795319,94.107971 
	C199.736420,105.901634 199.680084,116.887077 199.623734,127.872513 
z"/>
<path fill="#E4EFF3" opacity="1.000000" stroke="none" 
	d="
M203.176407,93.996185 
	C205.158005,94.632133 207.139587,95.268074 209.494324,96.456688 
	C209.978775,106.998840 210.090088,116.988319 210.201401,126.977798 
	C210.201401,126.977798 210.056671,127.421104 209.580093,127.690323 
	C207.138733,127.856369 205.173935,127.753181 203.209152,127.649994 
	C203.209152,127.649994 203.139832,127.794083 203.249771,127.343369 
	C203.298599,115.927162 203.237503,104.961678 203.176407,93.996185 
z"/>
<path fill="#DCE9ED" opacity="1.000000" stroke="none" 
	d="
M193.527573,71.592552 
	C202.007690,74.020538 199.410034,80.558792 199.709259,86.070412 
	C191.722626,84.421661 189.969452,80.407646 193.527573,71.592552 
z"/>
<path fill="#0F5F97" opacity="1.000000" stroke="none" 
	d="
M202.779312,93.996750 
	C203.237503,104.961678 203.298599,115.927162 203.329712,127.343124 
	C202.380356,127.843376 201.460968,127.893150 200.082672,127.907715 
	C199.680084,116.887077 199.736420,105.901634 199.897354,94.456932 
	C200.795380,93.997543 201.588791,93.997421 202.779312,93.996750 
z"/>
<path fill="#DDE9EE" opacity="1.000000" stroke="none" 
	d="
M195.644882,56.340511 
	C200.251251,58.869106 200.251251,58.869106 199.505219,69.263924 
	C190.643967,66.876373 191.904099,66.274673 192.663574,55.160831 
	C193.589722,55.494816 194.453003,55.806129 195.644882,56.340511 
z"/>
<path fill="#DCEAF0" opacity="1.000000" stroke="none" 
	d="
M203.343719,66.209877 
	C203.488571,64.562302 203.632401,63.342289 203.783463,62.060890 
	C210.885193,64.419838 210.975739,64.643166 209.585663,75.488503 
	C203.960037,75.079506 203.319702,74.171646 203.343719,66.209877 
z"/>
<path fill="#E0EDF2" opacity="1.000000" stroke="none" 
	d="
M210.086304,91.016434 
	C203.002274,89.822495 202.472061,88.769592 203.844894,77.689178 
	C205.866058,78.715363 207.673157,79.632866 209.732834,81.227844 
	C210.019043,84.942360 210.052673,87.979401 210.086304,91.016434 
z"/>
<path fill="#30709C" opacity="1.000000" stroke="none" 
	d="
M210.455093,126.654427 
	C210.090088,116.988319 209.978775,106.998840 209.799072,96.551056 
	C210.147507,96.915634 210.926056,97.738655 210.925766,98.561401 
	C210.922516,107.817978 210.799591,117.074509 210.455093,126.654427 
z"/>
<path fill="#30709C" opacity="1.000000" stroke="none" 
	d="
M210.358063,90.721344 
	C210.052673,87.979401 210.019043,84.942360 210.002869,81.450325 
	C210.223480,84.138962 210.426651,87.282608 210.358063,90.721344 
z"/>
<path fill="#30709C" opacity="1.000000" stroke="none" 
	d="
M203.356201,128.010284 
	C205.173935,127.753181 207.138733,127.856369 209.526184,127.917175 
	C207.800339,128.040054 205.651794,128.205322 203.356201,128.010284 
z"/>
<path fill="#EDF6F8" opacity="1.000000" stroke="none" 
	d="
M153.106110,32.034393 
	C155.087036,30.715750 157.067947,29.397108 159.126129,28.027048 
	C161.988724,37.325432 160.750275,40.531883 153.256653,42.709137 
	C153.078598,38.729797 153.092346,35.382095 153.106110,32.034393 
z"/>
<path fill="#EFF7FA" opacity="1.000000" stroke="none" 
	d="
M153.017761,20.998299 
	C151.879150,15.252824 155.780243,13.914561 159.416046,12.188075 
	C161.443634,21.967745 160.677322,23.868891 153.316132,26.736330 
	C153.213058,24.879253 153.117340,23.154448 153.017761,20.998299 
z"/>
<path fill="#E7F2F5" opacity="1.000000" stroke="none" 
	d="
M147.009338,30.681044 
	C145.348679,31.463276 144.034088,32.052578 142.651703,32.672272 
	C140.717712,22.671377 141.835983,20.219622 149.623718,19.145088 
	C148.824860,23.139874 148.090134,26.813993 147.009338,30.681044 
z"/>
<path fill="#EAF4F7" opacity="1.000000" stroke="none" 
	d="
M146.453461,35.180893 
	C146.453461,35.180893 146.761337,35.189564 147.294037,35.127964 
	C148.250916,38.376141 148.675095,41.685921 149.099274,44.995697 
	C149.099274,44.995697 148.926575,45.342339 148.616608,45.635231 
	C148.022812,46.217316 147.738968,46.506508 147.455109,46.795696 
	C147.455109,46.795692 147.199677,46.753452 146.789871,46.863182 
	C146.061829,47.237011 145.743591,47.501106 145.425369,47.765205 
	C145.425369,47.765209 145.171967,47.741543 144.815750,47.861397 
	C144.311859,48.089973 144.164185,48.198696 144.016525,48.307415 
	C143.779678,48.282925 143.542831,48.258434 142.996948,47.884796 
	C142.607834,47.379311 142.527756,47.222977 142.447678,47.066643 
	C143.097900,43.580696 143.748123,40.094749 144.996964,36.307133 
	C145.881546,35.730602 146.167496,35.455746 146.453461,35.180893 
z"/>
<path fill="#316F99" opacity="1.000000" stroke="none" 
	d="
M149.370728,44.693405 
	C148.675095,41.685921 148.250916,38.376141 147.409912,35.026531 
	C149.180191,33.160889 149.922089,34.404728 149.940384,36.511181 
	C149.963196,39.136761 149.752213,41.764378 149.370728,44.693405 
z"/>
<path fill="#316F99" opacity="1.000000" stroke="none" 
	d="
M152.791534,32.293312 
	C153.092346,35.382095 153.078598,38.729797 153.019257,42.531384 
	C152.808090,39.507587 152.642532,36.029911 152.791534,32.293312 
z"/>
<path fill="#316F99" opacity="1.000000" stroke="none" 
	d="
M145.745728,47.755386 
	C145.743591,47.501106 146.061829,47.237011 146.698151,46.954536 
	C146.699509,47.205967 146.382797,47.475769 145.745728,47.755386 
z"/>
<path fill="#316F99" opacity="1.000000" stroke="none" 
	d="
M144.152588,48.427307 
	C144.164185,48.198696 144.311859,48.089973 144.733826,47.958755 
	C144.768295,48.139904 144.528458,48.343552 144.152588,48.427307 
z"/>
<path fill="#316F99" opacity="1.000000" stroke="none" 
	d="
M142.352112,47.185524 
	C142.527756,47.222977 142.607834,47.379311 142.650848,47.796570 
	C142.309006,47.886787 142.189941,47.635757 142.352112,47.185524 
z"/>
<path fill="#316F99" opacity="1.000000" stroke="none" 
	d="
M147.780334,46.754402 
	C147.738968,46.506508 148.022812,46.217316 148.599167,45.828079 
	C148.629623,46.056389 148.367584,46.384743 147.780334,46.754402 
z"/>
<path fill="#316F99" opacity="1.000000" stroke="none" 
	d="
M146.150024,35.209808 
	C146.167496,35.455746 145.881546,35.730602 145.291199,36.033356 
	C145.273392,35.787071 145.559982,35.512897 146.150024,35.209808 
z"/>
</svg>